Coordinates
version=1
nRows=49
nColumns=12
inDegrees=yes

Units are S.I. units (second, meters, Newtons, ...)
Angles are in degrees

endheader
time	SC_y	SC_z	SC_x	AC_y	AC_z	AC_x	GH_y	GH_z	GH_yy	EL_x	PS_y
       0.0              -30.72          38.87          32.54          68.93          -5.78         -11.17         -136.9          58.34         -60.45          86.38          30.79
   0.00214              -30.73          38.87          32.54          68.93         -5.781         -11.17         -136.8          58.34         -60.43          86.38           30.8
   0.00428              -30.73          38.87          32.54          68.92         -5.783         -11.17         -136.8          58.33         -60.41          86.38          30.81
  0.006419              -30.73          38.87          32.53          68.92         -5.784         -11.16         -136.7          58.32         -60.38          86.37          30.82
  0.008559              -30.74          38.87          32.53          68.92         -5.785         -11.16         -136.7          58.31         -60.35          86.37          30.82
    0.0107              -30.74          38.86          32.53          68.92         -5.787         -11.16         -136.6           58.3         -60.32          86.37          30.83
   0.01284              -30.75          38.86          32.53          68.91         -5.788         -11.15         -136.6          58.29         -60.29          86.37          30.84
   0.01498              -30.75          38.86          32.52          68.91          -5.79         -11.15         -136.5          58.27         -60.26          86.36          30.86
   0.01712              -30.76          38.86          32.52          68.91         -5.792         -11.15         -136.4          58.26         -60.22          86.36          30.87
   0.01926              -30.76          38.86          32.51           68.9         -5.794         -11.14         -136.3          58.25         -60.18          86.36          30.88
    0.0214              -30.77          38.85          32.51           68.9         -5.796         -11.14         -136.3          58.23         -60.14          86.35          30.89
   0.02354              -30.77          38.85          32.51          68.89         -5.798         -11.13         -136.2          58.22         -60.09          86.35          30.91
   0.02568              -30.78          38.85           32.5          68.89         -5.801         -11.13         -136.1           58.2         -60.05          86.34          30.92
   0.02782              -30.79          38.84           32.5          68.88         -5.803         -11.12         -136.0          58.18         -59.99          86.34          30.94
   0.02996               -30.8          38.84          32.49          68.88         -5.806         -11.12         -135.9          58.16         -59.94          86.33          30.96
    0.0321              -30.81          38.84          32.48          68.87         -5.809         -11.11         -135.7          58.14         -59.87          86.33          30.98
   0.03424              -30.82          38.83          32.48          68.87         -5.812         -11.11         -135.6          58.12         -59.81          86.32           31.0
   0.03638              -30.83          38.83          32.47          68.86         -5.816          -11.1         -135.5          58.09         -59.73          86.31          31.02
   0.03852              -30.84          38.82          32.46          68.85          -5.82         -11.09         -135.3          58.06         -59.66          86.31          31.05
   0.04066              -30.85          38.82          32.45          68.85         -5.824         -11.08         -135.1          58.03         -59.57           86.3          31.08
    0.0428              -30.86          38.81          32.45          68.84         -5.829         -11.07         -134.9           58.0         -59.47          86.29          31.11
   0.04494              -30.88          38.81          32.44          68.83         -5.834         -11.06         -134.7          57.96         -59.37          86.28          31.14
   0.04708              -30.89           38.8          32.42          68.82          -5.84         -11.05         -134.5          57.92         -59.25          86.27          31.18
   0.04922              -30.91          38.79          32.41           68.8         -5.846         -11.04         -134.2          57.87         -59.12          86.26          31.22
   0.05136              -30.93          38.78           32.4          68.79         -5.854         -11.02         -134.0          57.82         -58.98          86.24          31.26
    0.0535              -30.96          38.77          32.38          68.78         -5.862         -11.01         -133.6          57.77         -58.82          86.23          31.32
   0.05564              -30.98          38.76          32.36          68.76          -5.87         -10.99         -133.3           57.7         -58.64          86.21          31.37
   0.05778              -31.01          38.75          32.34          68.74          -5.88         -10.97         -132.9          57.63         -58.44          86.19          31.44
   0.05991              -31.04          38.73          32.32          68.72         -5.892         -10.94         -132.4          57.55         -58.21          86.17          31.51
   0.06205              -31.08          38.72           32.3           68.7         -5.905         -10.92         -131.9          57.46         -57.95          86.15          31.59
   0.06419              -31.12           38.7          32.27          68.67         -5.919         -10.89         -131.3          57.36         -57.65          86.12          31.69
   0.06633              -31.17          38.68          32.24          68.64         -5.936         -10.86         -130.7          57.24         -57.32          86.09          31.79
   0.06847              -31.22          38.65           32.2           68.6         -5.956         -10.82         -129.9           57.1         -56.92          86.05          31.92
   0.07061              -31.29          38.63          32.15          68.56         -5.978         -10.77         -129.0          56.94         -56.47          86.01          32.07
   0.07275              -31.36          38.59           32.1          68.51         -6.005         -10.72         -128.0          56.75         -55.94          85.96          32.24
   0.07489              -31.45          38.55          32.04          68.45         -6.036         -10.65         -126.7          56.53         -55.31           85.9          32.44
   0.07703              -31.56          38.51          31.97          68.38         -6.073         -10.58         -125.2          56.27         -54.56          85.83          32.67
   0.07917              -31.69          38.45          31.88           68.3         -6.117         -10.49         -123.5          55.95         -53.67          85.75          32.96
   0.08131              -31.84          38.38          31.78           68.2         -6.171         -10.38         -121.3          55.57         -52.59          85.65           33.3
   0.08345              -32.03           38.3          31.65          68.08         -6.237         -10.25         -118.7          55.11         -51.27          85.53          33.73
   0.08559              -32.26           38.2          31.49          67.92         -6.318         -10.08         -115.5          54.53         -49.64          85.38          34.25
   0.08773              -32.55          38.07          31.29          67.74         -6.419         -9.881         -111.5          53.82         -47.61          85.19           34.9
   0.08987              -32.91          37.91          31.04           67.5         -6.546         -9.624         -106.4          52.92         -45.05          84.95          35.71
   0.09201              -33.37          37.71          30.73           67.2         -6.708         -9.297         -99.99          51.77         -41.79          84.65          36.75
   0.09415              -33.96          37.45          30.32          66.81         -6.915         -8.879         -91.75           50.3         -37.63          84.26          38.08
   0.09629              -34.72          37.12           29.8          66.32          -7.18         -8.342         -81.18          48.42         -32.28          83.76          39.79
   0.09843              -35.69           36.7          29.14          65.68          -7.52         -7.657         -67.68          46.01         -25.45          83.13          41.97
    0.1006              -36.91          36.16          28.31          64.89         -7.946         -6.795         -50.71          42.99         -16.87          82.33          44.72
    0.1027               -38.4          35.51          27.29          63.92         -8.466         -5.745         -30.02           39.3         -6.402          81.36          48.06
